<?xml version="1.0" encoding="utf-8"?>
<!-- Generator: Adobe Illustrator 24.0.2, SVG Export Plug-In . SVG Version: 6.00 Build 0)  -->
<svg version="1.1" id="Layer_1" xmlns="http://www.w3.org/2000/svg" xmlns:xlink="http://www.w3.org/1999/xlink" x="0px" y="0px"
	 viewBox="0 0 500 500" style="enable-background:new 0 0 500 500;" xml:space="preserve">
<style type="text/css">
	.st0{fill-rule:evenodd;clip-rule:evenodd;fill:#FFFFFF;}
</style>
<g>
	<path class="st0" d="M50.19,204.98c-11.89,11.89-19.22,28.33-19.22,46.54c0,17.96,7.33,34.4,19.22,46.29
		c11.89,11.89,28.33,19.22,46.29,19.48v-0.25h33.39c16.44,0,30.1-10.88,33.89-26.81c7.33-31.11,23.27-59.18,45.27-81.19
		s50.08-37.94,81.19-45.27c15.93-3.79,26.81-17.45,26.81-33.89V96.73c0-18.21-7.33-34.65-19.22-46.54l0,0
		c-11.89-11.89-28.33-19.22-46.29-19.22c-18.21,0-34.65,7.33-46.54,19.22c-11.89,11.89-19.22,28.33-19.22,46.54v54.38
		c0,19.22-15.43,34.65-34.65,34.65H96.73C78.52,185.76,62.08,193.09,50.19,204.98z"/>
	<path class="st0" d="M450.57,295.78c11.38-11.38,18.46-27.06,18.46-44.26s-7.08-32.88-18.46-44.26
		c-11.38-11.38-26.81-18.46-44.01-18.46l0,0h-77.39h-0.25l0,0l0,0c-38.7,0-73.85,15.68-99.15,40.97s-40.97,60.45-40.97,99.15v77.39
		c0,17.2,7.08,32.88,18.46,44.26l0,0c11.38,11.38,27.06,18.46,44.26,18.46s32.88-7.08,44.26-18.46l0,0
		c11.38-11.38,18.46-27.06,18.46-44.26v-77.39v-14.67h14.67h77.39C423.51,314.24,439.19,307.16,450.57,295.78L450.57,295.78z"/>
</g>
</svg>
